<?xml version="1.0" encoding="UTF-8"?>
<svg id="Layer_1" xmlns="http://www.w3.org/2000/svg" xmlns:xlink="http://www.w3.org/1999/xlink" version="1.1" viewBox="0 0 2744.62 2744.62">
  <!-- Generator: Adobe Illustrator 29.5.1, SVG Export Plug-In . SVG Version: 2.1.0 Build 141)  -->
  <defs>
    <style>
      .st0 {
        fill: url(#linear-gradient2);
      }

      .st1 {
        fill: url(#linear-gradient1);
      }

      .st2 {
        fill: url(#linear-gradient9);
      }

      .st3 {
        fill: url(#linear-gradient3);
      }

      .st4 {
        fill: url(#linear-gradient6);
      }

      .st5 {
        fill: url(#linear-gradient8);
      }

      .st6 {
        fill: url(#linear-gradient7);
      }

      .st7 {
        fill: url(#linear-gradient5);
      }

      .st8 {
        fill: url(#linear-gradient4);
      }

      .st9 {
        fill: url(#linear-gradient);
      }
    </style>
    <linearGradient id="linear-gradient" x1="1372.31" y1="7.94" x2="1372.31" y2="2719.59" gradientUnits="userSpaceOnUse">
      <stop offset="0" stop-color="#fff"/>
      <stop offset="1" stop-color="#defaff"/>
    </linearGradient>
    <linearGradient id="linear-gradient1" x1="1372.31" y1="2654.06" x2="1372.31" y2="89.07" gradientUnits="userSpaceOnUse">
      <stop offset="0" stop-color="#2b2b2b"/>
      <stop offset="1" stop-color="#444"/>
    </linearGradient>
    <linearGradient id="linear-gradient2" x1="1923.39" y1="665.17" x2="1923.39" y2="1962.21" gradientUnits="userSpaceOnUse">
      <stop offset="0" stop-color="#74e8cf"/>
      <stop offset="1" stop-color="#2ca3bf"/>
    </linearGradient>
    <linearGradient id="linear-gradient3" x1="1775.96" y1="782.5" x2="1775.96" y2="2056.64" gradientUnits="userSpaceOnUse">
      <stop offset="0" stop-color="#7ad7ec"/>
      <stop offset="1" stop-color="#2a58a1"/>
    </linearGradient>
    <linearGradient id="linear-gradient4" x1="1798" y1="782.5" x2="1798" y2="2056.64" xlink:href="#linear-gradient3"/>
    <linearGradient id="linear-gradient5" x1="1871.89" y1="665.17" x2="1871.89" y2="1962.21" xlink:href="#linear-gradient2"/>
    <linearGradient id="linear-gradient6" x1="1211.83" y1="689.28" x2="1211.83" y2="2029.57" xlink:href="#linear-gradient"/>
    <linearGradient id="linear-gradient7" x1="1736.44" y1="689.28" x2="1736.44" y2="2029.57" xlink:href="#linear-gradient"/>
    <linearGradient id="linear-gradient8" x1="1583.2" y1="689.28" x2="1583.2" y2="2029.57" xlink:href="#linear-gradient"/>
    <linearGradient id="linear-gradient9" x1="1821.25" y1="689.28" x2="1821.25" y2="2029.57" xlink:href="#linear-gradient"/>
  </defs>
  <path class="st9" d="M1372.31,2744.62c-185.23,0-364.96-36.29-534.18-107.87-81.33-34.4-159.76-76.97-233.13-126.54-72.65-49.08-140.97-105.45-203.06-167.54s-118.45-130.4-167.54-203.06c-49.56-73.37-92.14-151.8-126.54-233.13C36.29,1737.27,0,1557.54,0,1372.31s36.29-364.96,107.87-534.18c34.4-81.33,76.97-159.76,126.54-233.13,49.08-72.65,105.45-140.97,167.54-203.06s130.4-118.45,203.06-167.54c73.37-49.57,151.8-92.14,233.13-126.54C1007.35,36.29,1187.08,0,1372.31,0s364.96,36.29,534.18,107.87c81.33,34.4,159.76,76.97,233.13,126.54,72.65,49.08,140.97,105.45,203.06,167.54s118.45,130.4,167.54,203.06c49.57,73.37,92.14,151.8,126.54,233.13,71.58,169.22,107.87,348.95,107.87,534.18s-36.29,364.96-107.87,534.18c-34.4,81.33-76.97,159.76-126.54,233.13-49.08,72.65-105.45,140.97-167.54,203.06s-130.4,118.45-203.06,167.54c-73.37,49.57-151.8,92.14-233.13,126.54-169.22,71.58-348.95,107.87-534.18,107.87Z"/>
  <circle class="st1" cx="1372.31" cy="1372.31" r="1312.31"/>
  <g>
    <g>
      <path class="st0" d="M2231.64,1605.12c3.12,19.98,4.68,40.28,4.68,60.82,0,26.71-2.69,52.81-7.8,78.04.4,3.33.63,6.71.63,10.14,0,20.56-7.35,39.44-19.55,54.16-13.01,15.68-31.53,26.63-52.57,29.83-4.19.64-8.48.97-12.84.97-28.27,0-53.35-13.89-68.8-35.2-9.33-12.86-15.16-28.41-16.04-45.26-.08-1.49-.12-2.99-.12-4.5,0-5.91.61-11.67,1.76-17.24,2.46-11.88,7.41-22.85,14.28-32.36,2.09-12.56,3.19-25.44,3.19-38.58,0-23.04-3.36-45.64-9.82-67.21-4.77,2.33-9.43,4.86-13.95,7.6l-211.17-211.17-159.59-159.59-10.85-10.85-.08.08c-20.62-21.56-37.7-46.54-50.31-73.98-17.89,4.93-36.45,7.48-55.21,7.48-12.88,0-25.49-1.19-37.73-3.44,18.94,54.92,50.91,103.83,92.21,142.99l371.6,371.6c-14.13,25.03-22.2,53.92-22.2,84.66,0,32.83,9.21,63.56,25.17,89.73,6.11,10.02,13.22,19.36,21.17,27.91,20.8,22.35,47.44,39.2,77.46,48.09,13.29,3.94,27.24,6.32,41.65,6.92,2.45.1,4.9.17,7.38.17,95.29,0,172.82-77.53,172.82-172.82,0-63.4-34.33-118.93-85.37-149Z"/>
      <path class="st3" d="M1989.45,1892.69c-41.98,27.02-91.92,42.72-145.45,42.72-94.82,0-178.36-49.24-226.4-123.49h109.68c-30.99-24.73-78.86-69.54-116.14-139.32-49.34-92.35-53.57-178.72-52.79-221.09-.01-.03-.03-.05-.04-.08l-.16.34c-29.12,38.76-50.54,83.61-61.99,132.26-6.2,26.31-9.49,53.74-9.49,81.92,0,51.97,11.16,101.38,31.2,145.98,55.93,124.46,181.06,211.35,326.12,211.35,83.47,0,160.34-28.77,221.23-76.92-29.18-12.03-55.03-30.51-75.79-53.66Z"/>
      <path class="st8" d="M2192.82,1588.28c-2.92-13.13-6.57-25.99-10.9-38.53-18.94-54.92-50.91-103.83-92.21-142.99l-371.6-371.6c14.13-25.04,22.2-53.92,22.2-84.66,0-32.83-9.21-63.56-25.17-89.73-14.21,12.2-26.95,26.07-37.91,41.31-9.8,13.62-18.17,28.34-24.9,43.92.08,1.49.12,2.99.12,4.5,0,5.91-.61,11.67-1.76,17.24-2.46,11.88-7.41,22.85-14.28,32.36-9.51,13.16-22.68,23.5-38.02,29.51-2.46.96-4.96,1.82-7.53,2.56-7.43,2.13-15.26,3.29-23.37,3.29-21.58,0-41.29-8.1-56.29-21.4-15.18-13.46-25.51-32.25-28.05-53.42-.4-3.33-.63-6.71-.63-10.14,0-20.56,7.35-39.44,19.55-54.16,8.24-21.08,18.24-41.29,29.84-60.42,12.54-20.68,26.93-40.12,42.94-58.07-2.45-.1-4.9-.17-7.38-.17-95.29,0-172.82,77.53-172.82,172.82,0,63.4,34.33,118.93,85.37,149,12.08,7.12,25.1,12.81,38.82,16.84,15.43,4.53,31.75,6.98,48.63,6.98,14.71,0,29-1.86,42.65-5.34,11.47-2.92,22.48-6.99,32.9-12.08,4.77-2.33,9.43-4.86,13.95-7.6l211.17,211.17,159.59,159.59,10.85,10.85.08-.08c20.62,21.56,37.7,46.54,50.31,73.98,4.87,10.6,9.08,21.57,12.56,32.86,7.74,25.08,11.92,51.71,11.92,79.3,0,3.04-.07,6.06-.17,9.08-.51,15.27-2.28,30.22-5.24,44.75-3.07,15.11-7.42,29.76-12.92,43.84,4.44,23.03,24.74,40.48,49.05,40.48,13.64,0,26.01-5.5,35.03-14.39,5.58-15.07,10.17-30.61,13.7-46.55,3.78-17.1,6.33-34.67,7.56-52.58.56-8.14.85-16.35.85-24.62,0-26.66-2.94-52.65-8.51-77.66Z"/>
      <path class="st7" d="M2193.81,892.7c-55.93-124.46-181.06-211.35-326.12-211.35-83.47,0-160.35,28.77-221.24,76.92-10.47,8.28-20.46,17.12-29.93,26.5-14.39,14.23-27.57,29.67-39.39,46.15-8.16,11.38-15.67,23.26-22.48,35.58-8.55,15.48-15.98,31.65-22.19,48.41-5.58,15.07-10.17,30.61-13.7,46.55,5.02,22.28,24.95,38.98,48.73,38.98,4.62,0,9.24-.65,13.72-1.94,8.63-2.47,16.34-7.29,22.41-13.66,3.07-15.11,7.42-29.76,12.92-43.84,5.48-14.04,12.1-27.5,19.75-40.28,6.26-10.46,13.2-20.46,20.78-29.94,11.04-13.82,23.4-26.53,36.9-37.94,8.95-7.56,18.38-14.56,28.26-20.93,41.98-27.02,91.92-42.72,145.45-42.72,94.82,0,178.36,49.24,226.4,123.49h-109.68c30.99,24.73,78.86,69.54,116.14,139.32,49.34,92.35,53.57,178.72,52.79,221.09.01.03.03.05.04.08l.16-.34c29.12-38.76,50.54-83.61,61.99-132.26,6.2-26.31,9.49-53.74,9.49-81.92,0-51.97-11.16-101.38-31.2-145.98Z"/>
    </g>
    <g>
      <path class="st4" d="M1527.95,1433.73l51-63.3.31-.71-.06.39.47-.58c.91,56.07,7.51,102.49,14,136.27,8.92,46.39,18.63,94.88,48.34,150.3,14.26,26.61,28.43,46.04,35.3,55.09,20.63,27.15,44.63,51.69,71.8,73.37l32.96,26.31,31.64-271.76-216.18-216.18c-45.6-43.35-80.47-97.51-100.87-156.65l-8.14-23.59c-9.04-3.72-17.82-8.07-26.26-13.04-10.14-5.98-19.73-12.81-28.68-20.38l-183.3,362.06-248.6-789.86h-234.39l-157.38,1342h273.45l96.32-653.75,116.86,653.75h195.32l159.83-363.6c.44-28.28,3.92-56.46,10.37-83.86,12.15-51.6,34.3-99.45,65.85-142.27Z"/>
      <path class="st6" d="M1772.94,1889.41l4.95-42.5h-82.89c23.06,19.05,49.49,33.46,77.94,42.5Z"/>
      <path class="st5" d="M1506.81,1866.31l-22.93,157.15h198.66c-18.76-8.51-36.92-18.51-54.31-30.01-49.82-32.92-91.18-76.37-121.42-127.15Z"/>
      <path class="st2" d="M1899.05,806.31c-10.31-1.38-20.78-2.1-31.37-2.1-44.11,0-87.01,12.35-124.25,35.72l1.59,2.61c19.81,32.49,30.29,69.82,30.29,107.95,0,26.56-5.13,52.88-14.97,77.39l101.13,101.13,37.58-322.71Z"/>
    </g>
  </g>
</svg>